<svg xmlns="http://www.w3.org/2000/svg" viewBox="0 0 64 64" fill="none" aria-hidden="true">
  <circle cx="32" cy="32" r="24" fill="#88B0C0" opacity=".14"/>
  <!-- globe -->
  <circle cx="32" cy="22" r="9" fill="#88B0C0" opacity=".22" stroke="#14242B" stroke-width="1.6"/>
  <ellipse cx="32" cy="22" rx="3.6" ry="9" stroke="#88B0C0" stroke-width="1.3"/>
  <path d="M23.5 22h17M24.2 18h15.6M24.2 26h15.6" stroke="#14242B" stroke-width="1.15" stroke-linecap="round" opacity=".75"/>
  <!-- speech bubbles -->
  <rect x="8" y="8" width="11" height="8" rx="3" fill="#fff" stroke="#14242B" stroke-width="1.3"/>
  <path d="M12.5 12.2h2.2M12.5 14.2h3.5" stroke="#D03860" stroke-width="1.3" stroke-linecap="round"/>
  <rect x="45" y="7" width="11" height="8" rx="3" fill="#fff" stroke="#14242B" stroke-width="1.3"/>
  <circle cx="48.2" cy="11" r="1" fill="#E8A840"/><circle cx="50.5" cy="11" r="1" fill="#88B0C0"/><circle cx="52.8" cy="11" r="1" fill="#D03860"/>
  <rect x="48" y="18" width="10" height="7.5" rx="3" fill="#fff" stroke="#14242B" stroke-width="1.3"/>
  <path d="M51 20.2h4M51 22.4h2.8" stroke="#88B0C0" stroke-width="1.25" stroke-linecap="round"/>
  <!-- three people -->
  <circle cx="17" cy="40" r="4.2" fill="#88B0C0" opacity=".35" stroke="#14242B" stroke-width="1.5"/>
  <path d="M9.5 54c1-5.5 3.4-8.2 7.5-8.2s6.5 2.7 7.5 8.2" stroke="#14242B" stroke-width="1.5" stroke-linecap="round"/>
  <circle cx="32" cy="38" r="5" fill="#E8A840" opacity=".3" stroke="#14242B" stroke-width="1.6"/>
  <path d="M22.5 55c1.3-6.5 4.5-9.5 9.5-9.5s8.2 3 9.5 9.5" stroke="#14242B" stroke-width="1.6" stroke-linecap="round"/>
  <circle cx="47" cy="40" r="4.2" fill="#D03860" opacity=".22" stroke="#14242B" stroke-width="1.5"/>
  <path d="M39.5 54c1-5.5 3.4-8.2 7.5-8.2s6.5 2.7 7.5 8.2" stroke="#14242B" stroke-width="1.5" stroke-linecap="round"/>
</svg>
