<svg xmlns="http://www.w3.org/2000/svg" viewBox="0 0 64 64" fill="none" aria-hidden="true">
  <circle cx="32" cy="32" r="26" fill="#E8A840" opacity=".14"/>
  <!-- box 1: one person -->
  <rect x="4" y="22" width="13" height="20" rx="2.8" fill="#fff" stroke="#14242B" stroke-width="1.45" stroke-dasharray="2.8 2.4"/>
  <circle cx="10.5" cy="29" r="2.4" fill="#88B0C0" opacity=".4" stroke="#14242B" stroke-width="1.15"/>
  <path d="M7 38.5c.5-2.6 1.5-3.9 3.5-3.9s3 1.3 3.5 3.9" stroke="#14242B" stroke-width="1.15" stroke-linecap="round"/>
  <path d="M19 32h4" stroke="#E8A840" stroke-width="2" stroke-linecap="round"/>
  <path d="M21.2 29.8L24.2 32l-3 2.2" stroke="#E8A840" stroke-width="2" stroke-linecap="round" stroke-linejoin="round"/>
  <!-- box 2: two people -->
  <rect x="25" y="18" width="15" height="28" rx="2.8" fill="#fff" stroke="#14242B" stroke-width="1.45" stroke-dasharray="2.8 2.4"/>
  <circle cx="30" cy="27" r="2.15" fill="#E8A840" opacity=".4" stroke="#14242B" stroke-width="1.1"/>
  <path d="M27 35c.4-2.2 1.3-3.3 3-3.3s2.6 1.1 3 3.3" stroke="#14242B" stroke-width="1.1" stroke-linecap="round"/>
  <circle cx="35.2" cy="27" r="2.15" fill="#D03860" opacity=".25" stroke="#14242B" stroke-width="1.1"/>
  <path d="M32.2 35c.4-2.2 1.3-3.3 3-3.3s2.6 1.1 3 3.3" stroke="#14242B" stroke-width="1.1" stroke-linecap="round"/>
  <path d="M42 32h4" stroke="#D03860" stroke-width="2" stroke-linecap="round"/>
  <path d="M44.2 29.8L47.2 32l-3 2.2" stroke="#D03860" stroke-width="2" stroke-linecap="round" stroke-linejoin="round"/>
  <!-- box 3: group -->
  <rect x="48" y="14" width="15" height="36" rx="2.8" fill="#fff" stroke="#14242B" stroke-width="1.45" stroke-dasharray="2.8 2.4"/>
  <circle cx="51.2" cy="24" r="1.7" fill="#88B0C0" opacity=".4" stroke="#14242B" stroke-width="1"/>
  <path d="M48.8 30.5c.3-1.7.95-2.5 2.4-2.5s2.1.8 2.4 2.5" stroke="#14242B" stroke-width="1" stroke-linecap="round"/>
  <circle cx="55.5" cy="24" r="1.7" fill="#E8A840" opacity=".4" stroke="#14242B" stroke-width="1"/>
  <path d="M53.1 30.5c.3-1.7.95-2.5 2.4-2.5s2.1.8 2.4 2.5" stroke="#14242B" stroke-width="1" stroke-linecap="round"/>
  <circle cx="59.8" cy="24" r="1.7" fill="#D03860" opacity=".25" stroke="#14242B" stroke-width="1"/>
  <path d="M57.4 30.5c.3-1.7.95-2.5 2.4-2.5s2.1.8 2.4 2.5" stroke="#14242B" stroke-width="1" stroke-linecap="round"/>
  <circle cx="52.5" cy="35.5" r="1.55" fill="#88B0C0" opacity=".3" stroke="#14242B" stroke-width=".95"/>
  <path d="M50.4 41c.25-1.4.8-2.1 2.1-2.1s1.85.7 2.1 2.1" stroke="#14242B" stroke-width=".95" stroke-linecap="round"/>
  <circle cx="56.5" cy="35.5" r="1.55" fill="#E8A840" opacity=".3" stroke="#14242B" stroke-width=".95"/>
  <path d="M54.4 41c.25-1.4.8-2.1 2.1-2.1s1.85.7 2.1 2.1" stroke="#14242B" stroke-width=".95" stroke-linecap="round"/>
  <circle cx="60.5" cy="35.5" r="1.55" fill="#D03860" opacity=".2" stroke="#14242B" stroke-width=".95"/>
  <path d="M58.4 41c.25-1.4.8-2.1 2.1-2.1s1.85.7 2.1 2.1" stroke="#14242B" stroke-width=".95" stroke-linecap="round"/>
</svg>
